<svg id="Group_94" data-name="Group 94" xmlns="http://www.w3.org/2000/svg" width="44.394" height="19.356" viewBox="0 0 44.394 19.356">
  <rect id="Rectangle_119" data-name="Rectangle 119" width="20.734" height="5.122" transform="translate(12.081 6.926)" fill="#fff"/>
  <path id="Path_88" data-name="Path 88" d="M221.023,202.172h0a3.242,3.242,0,0,1-3.243-3.243v-8.447a3.242,3.242,0,0,1,3.243-3.243h0a3.242,3.242,0,0,1,3.243,3.243v8.447A3.246,3.246,0,0,1,221.023,202.172Z" transform="translate(-217.78 -185.03)" fill="#ff6c2c"/>
  <path id="Path_89" data-name="Path 89" d="M239.5,201.971h0a3.242,3.242,0,0,1-3.243-3.243V185.863a3.242,3.242,0,0,1,3.243-3.243h0a3.242,3.242,0,0,1,3.243,3.243v12.866A3.246,3.246,0,0,1,239.5,201.971Z" transform="translate(-227.421 -182.62)" fill="#ff1d6a"/>
  <path id="Path_90" data-name="Path 90" d="M300.283,187.25h0a3.242,3.242,0,0,1,3.243,3.243v8.447a3.242,3.242,0,0,1-3.243,3.243h0a3.242,3.242,0,0,1-3.243-3.243v-8.447A3.239,3.239,0,0,1,300.283,187.25Z" transform="translate(-259.131 -185.036)" fill="#ff6c2c"/>
  <path id="Path_91" data-name="Path 91" d="M281.8,182.63h0a3.242,3.242,0,0,1,3.243,3.243v12.866a3.242,3.242,0,0,1-3.243,3.243h0a3.242,3.242,0,0,1-3.243-3.243V185.873A3.239,3.239,0,0,1,281.8,182.63Z" transform="translate(-249.49 -182.625)" fill="#ff1d6a"/>
</svg>
